<svg xmlns="http://www.w3.org/2000/svg" width="72" height="72" viewBox="-1 -1 19 19" shape-rendering="crispEdges">
  <g fill="#e6edf3"><rect x="2" y="0" width="3" height="1"/><rect x="12" y="0" width="3" height="1"/><rect x="1" y="1" width="5" height="1"/><rect x="11" y="1" width="5" height="1"/><rect x="0" y="2" width="2" height="1"/><rect x="5" y="2" width="2" height="1"/><rect x="10" y="2" width="2" height="1"/><rect x="15" y="2" width="2" height="1"/><rect x="0" y="3" width="2" height="1"/><rect x="5" y="3" width="2" height="1"/><rect x="10" y="3" width="2" height="1"/><rect x="15" y="3" width="2" height="1"/><rect x="0" y="4" width="2" height="1"/><rect x="5" y="4" width="2" height="1"/><rect x="10" y="4" width="2" height="1"/><rect x="15" y="4" width="2" height="1"/><rect x="1" y="5" width="15" height="1"/><rect x="2" y="6" width="13" height="1"/><rect x="5" y="7" width="2" height="1"/><rect x="10" y="7" width="2" height="1"/><rect x="5" y="8" width="2" height="1"/><rect x="10" y="8" width="2" height="1"/><rect x="5" y="9" width="2" height="1"/><rect x="10" y="9" width="2" height="1"/><rect x="2" y="10" width="13" height="1"/><rect x="1" y="11" width="15" height="1"/><rect x="0" y="12" width="2" height="1"/><rect x="5" y="12" width="2" height="1"/><rect x="10" y="12" width="2" height="1"/><rect x="15" y="12" width="2" height="1"/><rect x="0" y="13" width="2" height="1"/><rect x="5" y="13" width="2" height="1"/><rect x="10" y="13" width="2" height="1"/><rect x="15" y="13" width="2" height="1"/><rect x="0" y="14" width="2" height="1"/><rect x="5" y="14" width="2" height="1"/><rect x="10" y="14" width="2" height="1"/><rect x="15" y="14" width="2" height="1"/><rect x="1" y="15" width="5" height="1"/><rect x="11" y="15" width="5" height="1"/><rect x="2" y="16" width="3" height="1"/><rect x="12" y="16" width="3" height="1"/></g>
</svg>
